<svg xmlns="http://www.w3.org/2000/svg" version="1.1" xmlns:xlink="http://www.w3.org/1999/xlink" xmlns:svgjs="http://svgjs.com/svgjs" width="512" height="512" x="0" y="0" viewBox="0 0 64 64" style="enable-background:new 0 0 512 512" xml:space="preserve" class=""><g><path fill="#213d68" d="M57 24.488V60a2 2 0 0 1-2 2H7a2 2 0 0 1-2-2V12a2 2 0 0 1 2-2h23.73A15 15 0 0 0 57 24.488z" data-original="#213d68" class=""></path><path fill="#3b5892" d="M57 35H32V21.487h-2V35H5v1.999h25V62h2V36.999h25z" data-original="#3b5892"></path><g fill="#e2e7f6"><path d="M27 20h-6v-6h-6v6H9v6h6v6h6v-6h6zM35 47h18v4H35zM9 47h18v4H9z" fill="#e2e7f6" data-original="#e2e7f6" class=""></path><circle cx="44" cy="42" r="2" fill="#e2e7f6" data-original="#e2e7f6" class=""></circle><circle cx="44" cy="56" r="2" fill="#e2e7f6" data-original="#e2e7f6" class=""></circle></g><circle cx="44" cy="17" r="15" fill="#559b2d" data-original="#559b2d" class=""></circle><path fill="#6bc13b" d="M44.662 17a27.868 27.868 0 0 0-4.1-14.589 14.985 14.985 0 0 0 0 29.178A27.869 27.869 0 0 0 44.662 17z" data-original="#6bc13b" class=""></path><path fill="#e2e7f6" d="m52 12-3-3-5 5-5-5-3 3 5 5-5 5 3 3 5-5 5 5 3-3-5-5z" data-original="#e2e7f6" class=""></path><path fill="#f2f2f2" d="M44.444 13.556 44 14l-5-5-3 3 5 5-5 5 3 3 5-5 .444.444a27.313 27.313 0 0 0 0-6.888z" data-original="#f2f2f2"></path><path d="M60 17a15.986 15.986 0 0 0-29.835-8H7a3 3 0 0 0-3 3v48a3 3 0 0 0 3 3h48a3 3 0 0 0 3-3V24.73A15.9 15.9 0 0 0 60 17zM44 3a14 14 0 1 1-14 14A14.016 14.016 0 0 1 44 3zM7 11h22.178A15.9 15.9 0 0 0 30 24.728V35H6V12a1 1 0 0 1 1-1zM6 60V37h24v24H7a1 1 0 0 1-1-1zm49 1H32V37h24v23a1 1 0 0 1-1 1zm1-26H32v-7.454a15.93 15.93 0 0 0 24 0z" fill="#000000" data-original="#000000" class=""></path><path d="m35.292 22.707 3 3a1 1 0 0 0 1.415 0L44 21.414l4.292 4.293a1 1 0 0 0 1.415 0l3-3a1 1 0 0 0 0-1.415L48.414 17l4.293-4.293a1 1 0 0 0 0-1.415l-3-3a1 1 0 0 0-1.415 0L44 12.585l-4.293-4.293a1 1 0 0 0-1.415 0l-3 3a1 1 0 0 0 0 1.415L39.585 17l-4.293 4.292a1 1 0 0 0 0 1.415zm6.415-5a1 1 0 0 0 0-1.415L37.414 12 39 10.414l4.292 4.293a1.028 1.028 0 0 0 1.415 0L49 10.414 50.585 12l-4.293 4.292a1 1 0 0 0 0 1.415L50.585 22 49 23.585l-4.293-4.293a1 1 0 0 0-1.415 0L39 23.585 37.414 22zM9 27h5v5a1 1 0 0 0 1 1h6a1 1 0 0 0 1-1v-5h5a1 1 0 0 0 1-1v-6a1 1 0 0 0-1-1h-5v-5a1 1 0 0 0-1-1h-6a1 1 0 0 0-1 1v5H9a1 1 0 0 0-1 1v6a1 1 0 0 0 1 1zm1-6h5a1 1 0 0 0 1-1v-5h4v5a1 1 0 0 0 1 1h5v4h-5a1 1 0 0 0-1 1v5h-4v-5a1 1 0 0 0-1-1h-5zM53 46H35a1 1 0 0 0-1 1v4a1 1 0 0 0 1 1h18a1 1 0 0 0 1-1v-4a1 1 0 0 0-1-1zm-1 4H36v-2h16zM27 46H9a1 1 0 0 0-1 1v4a1 1 0 0 0 1 1h18a1 1 0 0 0 1-1v-4a1 1 0 0 0-1-1zm-1 4H10v-2h16zM44 45a3 3 0 1 0-3-3 3 3 0 0 0 3 3zm0-4a1 1 0 1 1-1 1 1 1 0 0 1 1-1zM44 53a3 3 0 1 0 3 3 3 3 0 0 0-3-3zm0 4a1 1 0 1 1 1-1 1 1 0 0 1-1 1z" fill="#000000" data-original="#000000" class=""></path></g></svg>